<?xml version="1.0" standalone="no"?><!DOCTYPE svg PUBLIC "-//W3C//DTD SVG 1.1//EN" "http://www.w3.org/Graphics/SVG/1.1/DTD/svg11.dtd"><svg t="1625451774908" class="icon" viewBox="0 0 1168 1024" version="1.1" xmlns="http://www.w3.org/2000/svg" p-id="5859" xmlns:xlink="http://www.w3.org/1999/xlink" width="228.125" height="200"><defs><style type="text/css"></style></defs><path d="M1161.282783 328.815304L982.917565 45.879652c-14.625391-23.429565-46.781217-30.464-73.104695-16.406261L23.830261 591.248696C0.445217 607.643826-7.15687 639.866435 7.468522 664.464696l177.196521 280.008347c16.361739 23.429565 48.528696 31.053913 73.093566 16.406261l885.982608-562.365217c24.553739-14.057739 32.166957-46.269217 17.541566-69.698783z m-36.84174 41.004522l-885.982608 562.354087c-7.602087 5.854609-17.541565 1.758609-23.396174-5.865739L38.455652 646.90087c-5.843478-7.613217-2.927304-19.322435 4.674783-23.429566l885.982608-562.354087c7.602087-5.854609 17.541565-1.758609 23.396174 5.854609l178.365218 279.418435c5.264696 7.624348 1.168696 19.333565-6.433392 23.440696zM352.50087 157.762783l-2.927305-38.077218 32.166957 20.502261 35.08313-16.406261-8.770782 36.908522 25.154782 29.284174-39.780174 2.938435-17.541565 32.211478-14.614261-35.149913-36.841739-7.613218c-1.168696 1.758609 28.070957-24.598261 28.070957-24.59826zM553.071304 87.462957l16.37287-35.138783 17.552696 32.211478 38.010434 2.927305-25.154782 28.126608 7.613217 38.066087-35.094261-16.39513-32.166956 20.502261 5.854608-38.077218-29.239652-25.188174c-2.337391 0 35.673043-7.034435 36.251826-7.034434zM807.012174 814.85913l2.927304 38.077218-32.166956-20.502261-35.083131 14.647652 8.770783-36.908522-25.154783-29.284174 38.021566-2.927304L784.795826 745.73913l14.614261 35.149913 36.841739 7.613218-29.239652 26.356869z m144.695652-122.434782l2.927304 38.077217-32.166956-20.502261-35.083131 14.647653 8.770783-36.908522-25.154783-29.284174 38.021566-2.927304L929.491478 623.304348l14.614261 35.149913 36.841739 7.613217-29.239652 26.35687zM640.75687 894.675478L623.193043 929.836522l-17.541565-32.211479L567.652174 894.664348l28.070956-28.115478-7.602087-36.897392 35.083131 16.395131 32.166956-17.574957-5.843478 38.077218 28.070957 25.188173c-0.589913-4.096-36.841739 2.927304-36.841739 2.927305zM216.82087 315.926261l-22.227479-31.053913 38.021566 1.758609L256 255.588174l10.529391 36.908522 36.841739 13.467826-30.99826 22.260869v38.066087l-29.239653-23.418435-36.841739 10.540522c-2.916174-1.168696 9.950609-37.487304 10.529392-37.487304z" fill="#E63636" opacity=".5" p-id="5860"></path><path d="M515.305739 640.178087c6.834087-4.563478 11.085913-9.928348 12.944696-16.183652 1.224348-6.121739-3.59513-20.758261-14.536348-43.631305l-19.066435 4.452174c9.805913 18.643478 14.280348 29.985391 13.078261 34.203826a14.870261 14.870261 0 0 1-6.555826 8.147479l-85.693217 51.489391c-6.522435 3.929043-11.742609 2.626783-15.671653-3.895652l-28.382608-47.237565 106.484869-63.966609-43.341913-72.125217-130.003478 78.10226 9.394087 15.627131 113.341217-68.096 24.56487 40.870956-89.822609 53.960348-14.135652-23.518609-16.484174 9.906087 53.648696 89.299479c9.082435 15.104 20.836174 18.331826 35.439304 9.561043l94.797913-56.965565z m76.911304-38.489044l-70.377739-117.125565a244.279652 244.279652 0 0 0-7.212521-44.288l-19.344696 2.048c8.403478 30.70887 10.729739 60.638609 7.234783 89.84487l15.916521 14.035478c1.335652-8.281043 2.404174-16.62887 3.183305-25.043478l54.272 90.323478 16.317217-9.794783z m40.303305-203.264L623.86087 384l-47.905392 28.794435c-4.641391-4.229565-8.982261-7.936-12.822261-11.241739l-14.836869 12.666434c3.784348 2.404174 7.590957 5.253565 11.341913 8.370087l-42.596174 25.6 8.681739 14.413913 106.807652-64.178087z m12.466087 49.530435l-20.635826-34.337391-83.812174 50.354087 20.646956 34.348522 83.812174-50.354087z m-23.117913-2.693565l-52.034783 31.276522-6.088348-10.139826 52.034783-31.276522 6.088348 10.139826zM648.904348 565.76c11.330783-6.811826 13.968696-15.649391 7.568695-26.290087l-14.547478-24.219826 35.550609-21.359304-5.465044-9.104696 9.96174-5.977044-18.888348-31.432347-110.08 66.148174 18.888348 31.421217 12.020869-7.223652 5.465044 9.104695 36.062608-21.670956 12.176696 20.257391c1.958957 3.272348 0.75687 6.333217-3.361391 8.804174-5.498435 3.305739-11.364174 6.366609-17.519305 9.349565l13.100522 13.645913 19.066435-11.464347z m14.647652-82.198261l-78.825739 47.36-7.635478-12.710956 78.825739-47.36 7.635478 12.710956z m78.08 26.468174c2.192696-20.48-2.181565-42.150957-13.133913-65.024l40.358956-24.253217 29.41774 48.940521 16.473043-9.906087-29.395478-48.940521 42.585043-25.6 15.371131 25.6c4.029217 6.700522 3.172174 11.887304-2.326261 15.181913-5.832348 3.517217-12.221217 6.878609-19.233391 10.395826l13.890782 13.389913 19.745391-11.865044c13.056-7.846957 15.827478-18.398609 8.091827-31.276521L785.808696 277.348174l-131.728696 79.137391 50.565565 84.146087c13.278609 22.884174 19.2 44.8 17.775305 65.758609l19.233391 3.628522z m52.457739-181.092174L751.526957 354.504348l-15.471305-25.755826 42.585044-25.6 15.471304 25.766956z m-59.069217 35.483826l-39.501913 23.741218-15.471305-25.766957 39.490783-23.730087 15.471304 25.755826z m24.765217 41.216l-39.501913 23.730087-15.782956-26.267826 39.490782-23.730087 15.794087 26.267826z m59.069218-35.494956l-42.585044 25.6-15.794087-26.278957 42.596174-25.6 15.782957 26.278957zM333.57913 109.189565c146.888348-93.673739 327.858087-95.432348 472.976696-21.659826l35.261217-22.260869c-42.896696-23.407304-89.900522-42.74087-138.084173-52.680348A518.366609 518.366609 0 0 0 506.902261 6.733913c-67.561739 10.529391-132.196174 35.127652-190.953739 73.182609-58.768696 38.054957-108.699826 83.144348-146.888348 140.510608-38.199652 55.618783-64.634435 115.344696-79.326609 179.745392-9.984 49.764174-14.692174 97.78087-9.984 146.365217l35.250087-22.238609C105.594435 362.117565 184.921043 201.104696 333.568 109.189565zM845.913043 914.220522c-146.888348 93.68487-326.099478 95.443478-471.81913 22.260869l-35.238956 22.238609c42.885565 23.418435 89.889391 42.74087 138.073043 52.691478a518.366609 518.366609 0 0 0 196.830609 5.854609c67.561739-10.529391 132.207304-36.886261 190.964869-73.182609 58.746435-36.296348 108.688696-83.72313 146.888348-140.510608 38.188522-55.618783 63.443478-115.923478 78.135652-180.335305 10.573913-49.753043 14.692174-96.601043 10.573913-146.365217l-32.311652 22.249739c4.118261 161.591652-75.208348 322.593391-222.096696 415.098435z" fill="#E63636" opacity=".5" p-id="5861"></path></svg>