<?xml version="1.0" standalone="no"?><!DOCTYPE svg PUBLIC "-//W3C//DTD SVG 1.1//EN" "http://www.w3.org/Graphics/SVG/1.1/DTD/svg11.dtd"><svg t="1635988094720" class="icon" viewBox="0 0 1024 1024" version="1.1" xmlns="http://www.w3.org/2000/svg" p-id="44831" xmlns:xlink="http://www.w3.org/1999/xlink" width="200" height="200"><defs><style type="text/css"></style></defs><path d="M334.4384 245.0944l19.3024-15.0016 24.576 2.1504-9.5744-21.4016 9.6256-21.3504-24.576 2.1504-19.3536-15.0016-5.376 21.4016-21.4016 11.5712 21.4016 11.776 5.376 23.7056z m343.552-25.7536l17.2032 17.152 7.5264-22.6304 21.4016-10.9056-20.48-14.9504-4.096-23.552-19.3536 14.0288-23.552-4.096 7.5264 23.552-10.8544 21.4016h24.6784zM485.376 191.488l23.552-6.2976 22.6816 11.776v-23.552l17.152-16.128-23.552-8.4992-11.5712-21.504-13.9264 18.0736-24.576 3.2256 14.9504 19.3024-4.7104 23.552zM231.5776 333.824l17.152 17.152 8.448-22.6816 22.6816-10.8544-19.3536-13.7216-3.1744-23.552-20.48 13.9264-23.552-3.1744 6.2464 22.6304-11.776 21.4016 23.808-1.1264z m462.592 463.0016l-18.1248 15.0016-24.7808-2.1504 9.728 21.3504-9.728 21.4016 24.7808-2.1504 18.1248 15.0016 5.376-22.6816 21.3504-11.776-21.3504-11.776-5.376-22.2208z m-150.016 41.6768l-23.552 6.2976-21.4016-11.776v23.552l-17.152 16.128 23.6544 8.448 10.8544 21.4016 13.9776-18.0736 23.552-3.2256-12.8-19.3024 2.8672-23.4496zM363.008 811.52l-17.2032-17.152-7.424 22.6816-21.4016 10.8544 19.3536 15.0016 4.096 23.552 19.3536-13.9776 23.552 4.096-7.424-23.552 10.8544-21.3504-23.7568-0.1536zM512.1024 0.8192C230.1952 0.8192 1.024 229.8368 1.024 511.7952c0 281.6512 229.2736 511.0784 511.0784 511.0784 281.7024 0 511.0784-229.376 511.0784-511.0784 0-281.7024-229.376-510.976-511.0784-510.976z m0 987.6992c-262.4512 0-476.7232-214.272-476.7232-476.7232C35.328 249.2928 249.6512 35.0208 512.1024 35.0208s476.7744 213.1456 476.7744 476.7744c0 262.4512-214.1696 476.7232-476.7744 476.7232z m0-905.216a428.3904 428.3904 0 0 0-428.544 428.4928A428.3904 428.3904 0 0 0 512 940.3392a428.3392 428.3392 0 0 0 428.4928-428.544c-1.024-236.8512-192.8192-428.544-428.3904-428.544z m317.952 612.6592l-17.152-14.9504-6.2976 23.552-21.4016 12.8 20.48 12.8 4.096 23.552 19.3536-14.9504 23.552 2.2016c-73.984 109.4656-198.2464 182.1184-339.7632 182.1184a409.344 409.344 0 0 1-409.2416-409.2416 409.344 409.344 0 0 1 409.2416-409.2928 409.1392 409.1392 0 0 1 409.088 409.1904 411.136 411.136 0 0 1-68.7104 226.816l-7.5776-21.3504 10.5472-22.6816-26.2144-0.512zM680.448 306.176a267.9296 267.9296 0 0 0-168.2944-60.0576 267.1104 267.1104 0 0 0-261.4272 215.296l17.152 3.2256c21.4016-117.0432 124.2624-201.3696 244.2752-201.3696 57.9072 0 113.408 20.48 157.5424 56.6272l10.752-13.7216z m-168.2944 454.1952a246.784 246.784 0 0 1-157.5424-56.832l-10.8544 12.8A268.5952 268.5952 0 0 0 512 776.3968a266.9056 266.9056 0 0 0 261.2224-215.296l-17.2032-3.2256a248.4224 248.4224 0 0 1-243.9168 202.496z" fill="#e01822" p-id="44832"></path><path d="M388.7616 564.5312l-131.4816 55.808 24.7296 58.3168c3.4304 8.0384 9.1648 10.3936 17.2032 6.9632l105.8304-44.9536a17.1008 17.1008 0 0 0 8.8064-8.192c2.048-4.608-1.2288-18.2784-9.4208-41.0624l22.4256-2.048c8.8064 27.8528 11.9296 45.2608 9.5744 52.0192a34.304 34.304 0 0 1-17.3568 16.384l-117.0944 49.664c-18.0224 7.68-30.8736 2.1504-38.8096-16.5376l-46.7968-110.2848 20.3776-8.6528 12.288 29.0816 110.9504-47.104-21.4016-50.4832-139.9808 59.392-8.192-19.2512 160.512-68.1472 37.8368 89.088zM456.704 446.8224l37.5296-15.9232a1956.4032 1956.4032 0 0 0-2.9184-28.0576l21.6064-3.9424c0.9728 8.1408 1.536 15.872 2.048 23.1424l76.3904-32.4096 8.192 19.3024-83.3536 35.3792c0.3584 20.8896-0.768 40.1408-3.3792 57.4976l33.536-14.1824-13.1584-30.976 19.712-8.3968 13.1584 30.976 46.4384-19.712 7.8336 18.432-46.4384 19.7632 27.5456 64.8704c6.0416 14.2336 2.5088 24.2176-10.4448 29.696l-23.0912 9.8304-12.4416-17.5104a192.512 192.512 0 0 0 21.1968-7.2704c4.2496-1.792 5.4272-5.5296 3.072-11.0592l-25.6-60.2112-51.9168 22.016-12.4928-16.384c4.096-16.3328 5.8368-35.84 5.4784-58.4704l-30.3104 12.9024-8.192-19.3024z m145.92 54.2208a404.48 404.48 0 0 1 56.832 31.8976l-8.0896 19.968a323.6864 323.6864 0 0 0-56.5248-33.5872l7.7312-18.2784z m-72.3968 31.744l19.2 6.3488c-3.584 23.296-11.0592 45.2096-21.8624 65.8432l-18.8416-10.752c10.496-19.5072 17.664-39.8336 21.504-61.44zM410.7264 445.2352c21.6064 13.1072 38.8096 25.344 52.0192 36.5056l-11.2128 17.7664a476.5696 476.5696 0 0 0-52.736-36.9152l11.9296-17.3568z m54.2208 81.152l21.4016-0.3584c3.2256 35.4304 4.4032 69.4784 3.84 102.2464l-22.1696-0.3584c1.024-33.9968 0-67.7888-3.072-101.5296z m283.2384-53.9136l8.0896 19.0976c-18.432 16.7936-40.0896 33.536-65.536 50.0736l-10.8544-18.432a478.72 478.72 0 0 0 68.3008-50.7392z m-106.7008-133.4272l21.9136-0.8192c0.7168 30.0032-0.6144 55.0912-4.4032 75.7248 7.68-4.2496 15.5136-8.8576 23.5008-13.7216 0.7168-8.8064 1.3824-17.8688 2.304-27.4944l20.3264-1.1264c-3.9936 40.7552-8.704 71.5264-14.5408 92.0064 12.9536-9.0112 25.7024-19.1488 37.9392-30.3616l7.68 18.0224a379.648 379.648 0 0 1-60.416 44.6464l-12.9536-15.7696c2.9696-3.0208 5.12-6.144 6.656-9.5744 3.7376-10.0864 7.3216-25.9072 10.3424-47.6672-9.984 5.9392-20.5824 12.2368-31.3344 18.7904l-12.6976-16.384a22.4256 22.4256 0 0 0 5.12-10.9568 395.264 395.264 0 0 0 0.512-75.3152z m50.1248 9.0112l48.9984-20.7872-10.1888-23.9616 20.1728-8.5504 10.1376 23.9616 48.7936-20.736 8.2944 19.5072-48.7936 20.736 11.3664 26.7264 42.5984-18.1248 8.2944 19.5072-104.7552 44.4928-8.2944-19.5072 41.984-17.8176-11.3152-26.7264-48.9984 20.7872-8.2944-19.5072z m142.2336 36.7104l37.4784 88.2688-19.5072 8.2432-3.584-8.448-56.0128 23.7568 3.584 8.4992-19.712 8.3456-37.4784-88.2176 95.232-40.448z m-49.7664 92.7232l56.0128-23.7568-17.664-41.5744-55.9616 23.7568 17.6128 41.5744z" fill="#e01822" p-id="44833"></path></svg>