<svg id="图层_1" data-name="图层 1" xmlns="http://www.w3.org/2000/svg" viewBox="0 0 228.26 200"><defs><style>.cls-1,.cls-2{fill:#666666;opacity:0.5;}.cls-1{isolation:isolate;}.cls-2{font-size:36px;font-family:FZLTZHK--GBK1-0, FZLanTingHei-DB-GBK;}</style></defs><title>sealed</title><path class="cls-1" d="M226.81,64.22,192,9c-2.86-4.58-9.14-6-14.28-3.2L4.65,115.48a10.85,10.85,0,0,0-3.2,14.3l34.61,54.69a10.81,10.81,0,0,0,14.28,3.2l173-109.84A9.82,9.82,0,0,0,226.81,64.22Zm-7.2,8-173,109.83c-1.48,1.14-3.43.34-4.57-1.15L7.51,126.35a3.19,3.19,0,0,1,.91-4.58l173-109.83c1.48-1.14,3.43-.34,4.57,1.14l34.84,54.57a3.37,3.37,0,0,1-1.26,4.58ZM68.85,30.81l-.57-7.44,6.28,4,6.85-3.2L79.7,31.38l4.91,5.72-7.77.57L73.42,44,70.56,37.1l-7.2-1.49C63.14,36,68.85,30.81,68.85,30.81ZM108,17.08l3.2-6.86,3.43,6.29,7.42.57-4.91,5.49L118.65,30l-6.85-3.2-6.28,4,1.14-7.44-5.71-4.92c-.46,0,7-1.37,7.08-1.37Zm49.6,142.07.57,7.44-6.28-4-6.85,2.86,1.71-7.21-4.91-5.72,7.43-.57,4-6.29,2.85,6.87,7.2,1.49-5.71,5.15Zm28.26-23.91.57,7.44-6.28-4-6.85,2.86,1.71-7.21-4.91-5.72,7.43-.57,4-6.29,2.85,6.87,7.2,1.49-5.71,5.15Zm-60.73,39.5-3.43,6.87-3.43-6.29-7.42-.58,5.48-5.49L114.87,162l6.85,3.2,6.28-3.43-1.14,7.44,5.48,4.92c-.12-.8-7.2.57-7.2.57Zm-82.8-113L38,55.64l7.43.34L50,49.92l2.06,7.21,7.2,2.63L53.2,64.11v7.43L47.49,67,40.29,69C39.72,68.8,42.23,61.7,42.35,61.7Z" transform="translate(0 0)"/><path class="cls-1" d="M65.15,21.33a93.4,93.4,0,0,1,92.38-4.23l6.89-4.35a98.82,98.82,0,0,0-27-10.29A101.24,101.24,0,0,0,99,1.32a95.41,95.41,0,0,0-37.3,14.29C50.23,23,40.48,31.85,33,43.05A101.23,101.23,0,0,0,17.53,78.16c-2,9.72-2.87,19.1-2,28.59l6.88-4.34A89.32,89.32,0,0,1,65.15,21.33ZM165.22,178.56c-28.69,18.3-63.69,18.64-92.15,4.35l-6.88,4.34a98.78,98.78,0,0,0,27,10.29,99.72,99.72,0,0,0,75.74-13.15,93.79,93.79,0,0,0,28.69-27.44,101.28,101.28,0,0,0,15.26-35.22,96.2,96.2,0,0,0,2.07-28.59l-6.31,4.35a93.11,93.11,0,0,1-43.38,81.07Z" transform="translate(0 0)"/><text class="cls-2" transform="matrix(0.84, -0.55, 0.55, 0.84, 74.55, 135.67)">已冻结</text></svg>