<?xml version="1.0" encoding="UTF-8"?>
<svg width="230px" height="230px" viewBox="0 0 230 230" version="1.1" xmlns="http://www.w3.org/2000/svg" xmlns:xlink="http://www.w3.org/1999/xlink">
    <title>未完成</title>
    <defs>
        <linearGradient x1="96.6612554%" y1="50%" x2="-4.36114071%" y2="50%" id="linearGradient-1">
            <stop stop-color="#56C6FB" stop-opacity="0" offset="0%"></stop>
            <stop stop-color="#56C6FB" offset="100%"></stop>
        </linearGradient>
        <linearGradient x1="96.6612554%" y1="50%" x2="-4.36114071%" y2="50%" id="linearGradient-2">
            <stop stop-color="#56C6FB" stop-opacity="0" offset="0%"></stop>
            <stop stop-color="#56C6FB" offset="100%"></stop>
        </linearGradient>
        <linearGradient x1="96.6612554%" y1="50%" x2="-4.36114071%" y2="50%" id="linearGradient-3">
            <stop stop-color="#56C6FB" stop-opacity="0" offset="0%"></stop>
            <stop stop-color="#56C6FB" offset="100%"></stop>
        </linearGradient>
        <linearGradient x1="65.6713815%" y1="28.8475757%" x2="19.58%" y2="100%" id="linearGradient-4">
            <stop stop-color="#B7BDE9" offset="0%"></stop>
            <stop stop-color="#8891D9" offset="100%"></stop>
        </linearGradient>
        <linearGradient x1="100%" y1="30.0554017%" x2="-5.64856488%" y2="71.9075998%" id="linearGradient-5">
            <stop stop-color="#6973C1" offset="0%"></stop>
            <stop stop-color="#0D1677" offset="100%"></stop>
        </linearGradient>
        <linearGradient x1="-9.19940559%" y1="5.38321071%" x2="-54.4559175%" y2="138.558551%" id="linearGradient-6">
            <stop stop-color="#FFC856" offset="0%"></stop>
            <stop stop-color="#E23737" offset="100%"></stop>
        </linearGradient>
        <linearGradient x1="100%" y1="49.1852121%" x2="-54.4559175%" y2="51.4431288%" id="linearGradient-7">
            <stop stop-color="#FFC856" offset="0%"></stop>
            <stop stop-color="#FFC856" offset="4.50957673%"></stop>
            <stop stop-color="#E23737" offset="100%"></stop>
        </linearGradient>
    </defs>
    <g id="未完成" stroke="none" stroke-width="1" fill="none" fill-rule="evenodd">
        <g id="编组-34" transform="translate(30.000000, 52.000000)">
            <polygon id="Rectangle-19-Copy-5" fill="url(#linearGradient-1)" opacity="0.400000006" points="139 73 169 73 169 85 139 85"></polygon>
            <polygon id="Rectangle-19-Copy-5备份" fill="url(#linearGradient-2)" opacity="0.400000006" transform="translate(152.000000, 54.000000) scale(1, -1) translate(-152.000000, -54.000000) " points="134 50 170 50 170 58 134 58"></polygon>
            <path d="M139,30 L139,126 L139,126 L43.0005268,126 L43.0005268,126 L43,92.574 L44.712,92.574 L44.7121331,124.294475 L137.287133,124.294475 L137.287133,31.705112 L44.7121331,31.705112 L44.712,74.127 L43,74.127 L43.0005268,30 L139,30 Z" id="形状结合" fill="#6771DE" fill-rule="nonzero" opacity="0.5"></path>
            <polygon id="Rectangle-19-Copy-5备份-2" fill="url(#linearGradient-3)" opacity="0.200000003" transform="translate(55.000000, 104.000000) scale(1, -1) translate(-55.000000, -104.000000) " points="38 100 72 100 72 108 38 108"></polygon>
            <path d="M98,82 L98,90 L12,90 L12,82 L98,82 Z M96.298137,83.7252795 L13.7012227,83.7252795 L13.7012227,88.2742624 L96.298137,88.2742624 L96.298137,83.7252795 Z" id="矩形" fill="#6771DE" fill-rule="nonzero"></path>
            <polygon id="Rectangle-31-Copy" fill="url(#linearGradient-4)" points="53 17 131 17 131 117 53 117"></polygon>
            <g id="编组-11" transform="translate(65.000000, 73.000000)">
                <rect id="矩形" stroke="#FFFFFF" stroke-width="2" x="0" y="-1" width="10" height="10"></rect>
                <path d="" id="路径-9" stroke="#FFFFFF" stroke-width="1.4"></path>
                <path d="M53,-1 L53,9 L19,9 L19,-1 L53,-1 Z" id="矩形" stroke="#FFFFFF" stroke-width="2"></path>
                <polygon id="直线备份" fill="#FFFFFF" fill-rule="nonzero" points="54 18 54 20 18 20 18 18"></polygon>
                <polygon id="直线备份" fill="#FFFFFF" fill-rule="nonzero" points="4 18 4 20 0 20 0 18"></polygon>
                <polygon id="直线备份-4" fill="#FFFFFF" fill-rule="nonzero" points="4 30 4 32 0 32 0 30"></polygon>
                <polygon id="直线备份" fill="#FFFFFF" fill-rule="nonzero" points="11 18 11 20 7 20 7 18"></polygon>
                <polygon id="直线备份-5" fill="#FFFFFF" fill-rule="nonzero" points="11 30 11 32 7 32 7 30"></polygon>
                <polygon id="直线备份-3" fill="#FFFFFF" fill-rule="nonzero" points="54 30 54 32 18 32 18 30"></polygon>
            </g>
            <path d="M92,4.68958206e-13 C97.5225132,4.68958206e-13 101.999458,4.47661049 102,9.99899707 L111,10 L111,24 L73,24 L73,10 L82,9.999 L82.0038418,9.72009516 C82.1520683,4.32667079 86.5707601,4.68958206e-13 92,4.68958206e-13 Z M92,5.76923077 C89.6634107,5.76923077 87.7692308,7.66341067 87.7692308,10 L96.2307692,10 L96.2307692,10 C96.2307692,7.66341067 94.3365893,5.76923077 92,5.76923077 Z" id="形状结合" fill="url(#linearGradient-5)"></path>
            <polygon id="Rectangle-31-Copy备份" fill="url(#linearGradient-6)" points="127 81 157 81 157 111 127 111"></polygon>
            <path d="M147.061208,88 L150.026316,90.8795761 L144.926,96.013 L150.026316,101.14674 L147.061208,104.026316 L142.013,98.945 L136.965108,104.026316 L134,101.14674 L139.1,96.013 L134,90.8795761 L136.965108,88 L142.013,93.081 L147.061208,88 Z" id="形状结合" fill="#FFFFFF" fill-rule="nonzero"></path>
            <path d="M47.0017428,70 L47.0017428,76 L40.5579555,76 L40.5579555,70 L47.0017428,70 Z M37.1465386,70 L37.1465386,76 L-5.68434189e-14,76 L-5.68434189e-14,70 L37.1465386,70 Z" id="形状结合" fill="url(#linearGradient-7)"></path>
            <g id="编组-32" transform="translate(75.000000, 34.000000)">
                <path d="M1.8,19.8032466 L16.2285861,17.8538034 C19.0665382,17.0237841 21.1662188,16.8792207 22.5276279,17.4201134 C23.889037,17.961006 26.127919,20.0845331 29.2442739,23.7906948 L29.7,28.4916068 C21.9756224,29.7273386 15.3734589,27.2493868 9.89350934,21.0577515 C9.59179926,21.0577515 6.89396282,20.6395832 1.8,19.8032466 Z" id="路径-5" fill="#B1B7E7"></path>
                <path d="M31.8975532,0.599391708 C29.5864413,4.0057717 28.0007239,7.03466435 26.834646,9.99211964 L26.8210294,10.1206041 C28.9421673,11.9030456 29.4486313,14.3703296 29.488476,16.7745169 C30.3044086,18.525672 32.0547633,19.781993 34.2,21.1163042 C32.7050707,21.6039665 31.1056613,21.9540374 29.4915782,22.1896522 L29.4911249,28.8240869 C28.0378601,29.1955355 26.2986463,29.6384214 24.8874692,29.6925133 C19.7341972,29.8902509 12.2586724,26.1449289 9.81882149,21.5505816 L9.947,21.783 L0.50629072,21.6596649 L-5.32907052e-13,20.7690107 C-5.32907052e-13,20.7690107 2.39528739,16.2295262 2.59829883,15.797433 C2.59109665,15.8363801 3.15923076,12.746312 3.73537228,9.65679262 L3.84335414,9.07827822 C4.22064953,7.05884874 4.58612291,5.12389253 4.77943391,4.1578973 C4.79676415,4.07309756 9.2815839,2.85429397 10.8648255,3.09610173 C12.0061459,3.27006968 14.0560663,3.92469801 15.1738671,4.27815875 C20.5524323,0.510351978 26.6972419,-0.923534591 31.8975532,0.599391708 Z M18.0853482,19.0531007 L18.0107144,19.0651516 L18.0107144,19.0651516 L17.8017064,19.098165 C17.1855525,19.1946599 15.8968078,19.3914072 14.6029359,19.5881107 L14.0866958,19.666552 C12.4610897,19.9134364 10.9700449,20.1387944 10.9700449,20.1387944 L3.36663261,20.7387042 C5.02739885,20.7824917 7.44005422,20.8462544 9.79308421,20.9089843 L10.3619477,20.924161 C10.645367,20.9317282 10.9269466,20.9392552 11.2052411,20.9467047 C13.3385981,21.0140872 15.4637508,21.25245 17.5617272,21.6596649 L17.5097365,21.8828424 L11.0639929,21.7978325 C14.1542764,26.2775563 21.3244926,28.8347237 24.7822499,28.6069481 C26.6427754,28.4845025 27.3174171,28.3321199 28.2359201,27.9555319 L28.2359201,27.9555319 L28.235,26.674 L28.2162097,26.6807948 C27.7756286,26.8079892 27.3279114,26.9074776 26.8754959,26.9786646 C22.0873968,27.6399741 20.9720718,22.1348005 20.7009773,20.2480062 C20.4298827,18.3612119 18.9184378,18.9169072 18.0853482,19.0531007 Z M13.6332145,13.4248265 C13.2286865,13.4245079 12.8638137,13.6679442 12.7087865,14.0415878 C12.5537594,14.4152313 12.6391192,14.8454721 12.9250509,15.1316294 C13.2109826,15.4177867 13.641156,15.5034857 14.0149217,15.3487533 C14.3886874,15.1940209 14.6324116,14.8293402 14.6324116,14.4248121 C14.6324116,13.8728432 14.1851833,13.4252619 13.6332145,13.4248265 Z" id="形状结合" fill="#FFFFFF"></path>
            </g>
        </g>
    </g>
</svg>