<svg xmlns:xlink="http://www.w3.org/1999/xlink" xmlns="http://www.w3.org/2000/svg" version="1.1" viewBox="0 0 120 120" height="120px" width="120px">
    <title>Blankpage_xfjlsvg</title>
    <defs>
        <linearGradient id="linearGradient-1" y2="100%" x2="50%" y1="5.83510486%" x1="47.0704509%">
            <stop offset="0%" stop-color="#EFEFEF"></stop>
            <stop offset="100%" stop-color="#DADADA"></stop>
        </linearGradient>
        <linearGradient id="linearGradient-2" y2="100%" x2="50%" y1="0%" x1="50%">
            <stop offset="0%" stop-color="#F9F9F9"></stop>
            <stop offset="100%" stop-color="#E6E6E6"></stop>
        </linearGradient>
        <linearGradient id="linearGradient-3" y2="100%" x2="50%" y1="0%" x1="50%">
            <stop offset="0%" stop-color="#DFDFDF"></stop>
            <stop offset="100%" stop-color="#CECECE"></stop>
        </linearGradient>
        <linearGradient id="linearGradient-4" y2="100%" x2="50%" y1="0%" x1="50%">
            <stop offset="0%" stop-color="#F1F1F1"></stop>
            <stop offset="100%" stop-color="#DFDFDF"></stop>
        </linearGradient>
        <linearGradient id="linearGradient-5" y2="90.5714735%" x2="77.0783528%" y1="8.02768186%" x1="40.1862869%">
            <stop offset="0%" stop-color="#FFFFFF"></stop>
            <stop offset="68.6246859%" stop-color="#FFFFFF"></stop>
            <stop offset="100%" stop-color="#F3F3F3"></stop>
        </linearGradient>
    </defs>
    <g fill-rule="evenodd" fill="none" stroke-width="1" stroke="none" id="调整">
        <g transform="translate(-1056.000000, -569.000000)" id="切图备份">
            <g transform="translate(932.000000, 508.000000)" id="编组-9备份">
                <rect height="242" width="362" y="0" x="0" id="矩形备份-16"></rect>
                <g transform="translate(144.000000, 73.000000)" id="编组-8">
                    <g fill-rule="nonzero" fill-opacity="0.045" fill="#000000" transform="translate(0.000000, 73.000000)" id="编组-3">
                        <g id="编组-25">
                            <path id="路径" d="M66.7223446,0.0336063051 C71.7567008,0.0767306989 75.8818853,0.612151837 76.1687954,4.89146719 C76.3309411,7.30990014 74.5282889,9.92623219 70.7608388,12.7404633 C70.3184065,13.0709957 70.2276557,13.6976019 70.5581613,14.1400542 C70.7024102,14.3331623 70.9115565,14.4676687 71.1471037,14.5188155 L73.1292914,14.9492285 L73.1292914,14.9492285 L73.7890077,15.1270805 C77.6778575,16.2502786 79.276809,18.3713073 79.3115859,20.8568695 C79.3480592,23.4636786 77.5528834,25.7938062 73.3797331,27.0512925 L72.6718485,27.2508052 C72.4318521,27.3139079 72.1879055,27.3735634 71.9402635,27.4296353 L71.5660607,27.5110385 L70.8377896,27.6510037 L70.0913792,27.7703388 C69.084661,27.9153836 68.0331028,28.0035221 66.950831,28.0271826 C64.7862872,28.0745035 62.7373377,27.8586993 60.9186008,27.4353682 L60.2475895,27.2669997 C56.1789935,26.1700788 53.4181126,24.0005398 53.3823697,21.4459342 C53.3708936,20.625718 53.7753528,19.6413701 54.5957475,18.4928904 C54.791481,18.2188199 54.7280164,17.8379618 54.4539665,17.6421995 C54.2950203,17.5286593 54.0913025,17.4981336 53.9060581,17.5600992 L53.9060581,17.5600992 L53.9060581,17.5600992 L47.8946222,18.4835481 L43.243407,19.2093 L40.2373203,19.706655 L35.3861889,20.5653494 L26.0069,22.9858551 L23.8563752,23.3587851 L21.2620759,23.786129 L19.2667781,24.0907054 L17.8197765,24.2940179 L16.8796392,24.4163971 L15.507525,24.578621 L14.6189332,24.6716066 L13.751867,24.751714 L12.9068452,24.8183028 L12.0843862,24.8707327 L11.2850087,24.9083633 L10.5092312,24.9305541 L9.75757239,24.9366647 L9.3909495,24.9334899 L9.03055073,24.9260549 L8.32868483,24.898084 L7.65249329,24.8521119 L7.00249467,24.787498 L6.68747977,24.7480003 L6.37920757,24.7036019 L5.78315055,24.5997834 C2.67771525,23.991819 0.756222974,22.5065026 0.37269011,19.706655 C-0.0934088556,16.3040624 2.17926632,13.9642858 6.33278846,12.164536 L6.69339079,12.011582 L7.36530678,11.7426969 L7.71209305,11.6112458 L8.42688453,11.3540599 L8.79471469,11.2282185 L9.55080623,10.9817719 L9.93889257,10.86106 L10.7347088,10.6243927 L11.5561328,10.3937116 L12.4024645,10.1685899 L13.7171323,9.84039817 L15.0839038,9.52231531 L16.5004158,9.21290132 L17.9643053,8.91071619 L19.4732091,8.61431992 L21.5510185,8.22564087 L24.7976499,7.64965174 L36.7005128,4.89146719 L39.1410887,4.45725365 L41.5447566,4.00951733 L43.3190107,3.66888648 L51.2141724,2.11281443 L54.3697656,1.51157715 L55.8885821,1.23669656 L57.365411,0.982789131 L58.7982516,0.752715733 L60.1851032,0.549337221 L61.0831334,0.429994808 L61.9592421,0.324635943 L62.8128364,0.234108287 L63.6433236,0.159259502 L64.4501108,0.10093725 L65.2326052,0.0599891922 L65.6145574,0.0462953803 L65.9902141,0.03726299 L66.7223446,0.0336063051 Z"></path>
                        </g>
                    </g>
                    <g transform="translate(5.000000, 0.000000)" id="编组-6">
                        <path transform="translate(30.695200, 46.481676) rotate(2.000000) translate(-30.695200, -46.481676)" fill="url(#linearGradient-1)" id="矩形备份-2" d="M9.43820201,10.6776259 L45.1590853,3.37446163 C50.570002,2.26819522 55.8532228,5.75780373 56.9594892,11.1687204 C57.0725795,11.7218625 57.1386226,12.2835885 57.1569104,12.8478767 L59.1122059,73.1804402 C59.2722123,78.117595 55.8032886,82.4318816 50.9469096,83.3355867 L16.0299818,89.8331449 C10.6003432,90.8435257 5.37967598,87.2610094 4.3692952,81.8313708 C4.27679264,81.3342756 4.22212506,80.8308805 4.20576282,80.3255165 L2.24568084,19.7864658 C2.10376811,15.4033522 5.14167011,11.5560555 9.43820201,10.6776259 Z"></path>
                        <path transform="translate(33.677761, 47.981067) rotate(2.000000) translate(-33.677761, -47.981067)" fill="url(#linearGradient-2)" id="矩形备份-2" d="M12.7263192,12.8756319 L49.6256268,5.79806103 C53.9648062,4.96577308 58.1571087,7.80867024 58.9893967,12.1478496 C59.0684064,12.5597714 59.1148991,12.9772689 59.1284446,13.3964809 L61.1180382,74.9713631 C61.245111,78.9040704 58.493519,82.3452959 54.6292018,83.0865017 L17.7298942,90.1640726 C13.3907149,90.9963605 9.1984123,88.1534633 8.36612435,83.814284 C8.28711457,83.4023622 8.24062195,82.9848647 8.22707647,82.5656527 L6.23748281,20.9907704 C6.11041007,17.0580632 8.862002,13.6168377 12.7263192,12.8756319 Z"></path>
                        <path transform="translate(32.177761, 7.981067) rotate(2.000000) translate(-32.177761, -7.981067)" fill="url(#linearGradient-3)" id="矩形" d="M20.4282246,6.46698716 L43.430661,2.76010725 C44.2485361,2.62830534 45.0184015,3.18447759 45.1502034,4.00235274 C45.1625121,4.07873228 45.1688932,4.15594962 45.1692897,4.23331357 L45.1886282,8.00656484 C45.1924168,8.74577294 44.6570985,9.37753763 43.9272964,9.49514643 L20.92486,13.2020263 C20.1069849,13.3338282 19.3371195,12.777656 19.2053176,11.9597808 C19.1930089,11.8834013 19.1866278,11.806184 19.1862313,11.72882 L19.1668928,7.95556875 C19.1631042,7.21636065 19.6984225,6.58459596 20.4282246,6.46698716 Z"></path>
                        <path transform="translate(33.177761, 8.981067) rotate(2.000000) translate(-33.177761, -8.981067)" fill="url(#linearGradient-4)" id="矩形" d="M21.2591694,7.49423068 L44.6612809,3.72294247 C45.3701061,3.60871415 46.0373227,4.0907301 46.151551,4.79955523 C46.1622186,4.86575083 46.1677489,4.93267252 46.1680925,4.99972128 L46.1895058,9.17779887 C46.1927893,9.81844589 45.7288468,10.3659753 45.0963516,10.4679029 L21.6942401,14.2391911 C20.9854149,14.3534194 20.3181983,13.8714035 20.20397,13.1625784 C20.1933024,13.0963828 20.1877721,13.0294611 20.1874285,12.9624123 L20.1660152,8.78433473 C20.1627318,8.1436877 20.6266743,7.5961583 21.2591694,7.49423068 Z"></path>
                        <path fill="url(#linearGradient-5)" id="矩形" d="M13.4917084,19.3168233 L54.4917084,14.1918233 C55.3137383,14.0890696 56.0634236,14.6721581 56.1661773,15.494188 C56.173892,15.5559053 56.1777605,15.6180426 56.1777605,15.6802401 C56.1777605,26.2317689 56.1777605,36.7832977 56.1777605,47.3348266 C56.1777605,57.2974421 58.593574,66.4791417 63.4252009,74.8799255 C63.700526,75.358676 63.5356396,75.9699812 63.0568992,76.2453239 C62.9481466,76.3078719 62.8285951,76.3493969 62.7044853,76.3677313 L21.0051777,82.5278563 C20.4805369,82.6053544 19.9539659,82.4000629 19.6202267,81.9879074 C14.6585826,75.8604609 12.1777605,66.3031982 12.1777605,53.3161193 C12.1777605,42.4791596 12.1777605,31.6421998 12.1777605,20.8052401 C12.1777605,20.0487552 12.7410652,19.4106537 13.4917084,19.3168233 Z"></path>
                        <path transform="translate(34.202457, 26.159434) rotate(-7.000000) translate(-34.202457, -26.159434)" fill="#EDEDED" id="矩形" d="M16.9939019,24.7757314 L51.6300258,24.5439367 C51.906162,24.5420887 52.1315127,24.7644432 52.1333607,25.0405794 C52.1334936,25.060437 52.1324434,25.0802849 52.1302156,25.1000176 L51.9045097,27.099239 C51.8761091,27.3508017 51.6641672,27.5414416 51.4110121,27.5431357 L16.7748881,27.7749305 C16.4987519,27.7767784 16.2734012,27.5544239 16.2715533,27.2782877 C16.2714204,27.2584301 16.2724706,27.2385822 16.2746984,27.2188495 L16.5004042,25.2196281 C16.5288049,24.9680654 16.7407468,24.7774256 16.9939019,24.7757314 Z"></path>
                        <path transform="translate(34.202457, 35.159434) rotate(-7.000000) translate(-34.202457, -35.159434)" fill="#F3F3F3" id="矩形备份" d="M16.9939019,33.7757314 L51.6300258,33.5439367 C51.906162,33.5420887 52.1315127,33.7644432 52.1333607,34.0405794 C52.1334936,34.060437 52.1324434,34.0802849 52.1302156,34.1000176 L51.9045097,36.099239 C51.8761091,36.3508017 51.6641672,36.5414416 51.4110121,36.5431357 L16.7748881,36.7749305 C16.4987519,36.7767784 16.2734012,36.5544239 16.2715533,36.2782877 C16.2714204,36.2584301 16.2724706,36.2385822 16.2746984,36.2188495 L16.5004042,34.2196281 C16.5288049,33.9680654 16.7407468,33.7774256 16.9939019,33.7757314 Z"></path>
                        <path transform="translate(34.202457, 44.159434) rotate(-7.000000) translate(-34.202457, -44.159434)" fill="#F9F9F9" id="矩形备份-3" d="M16.9939019,42.7757314 L51.6300258,42.5439367 C51.906162,42.5420887 52.1315127,42.7644432 52.1333607,43.0405794 C52.1334936,43.060437 52.1324434,43.0802849 52.1302156,43.1000176 L51.9045097,45.099239 C51.8761091,45.3508017 51.6641672,45.5414416 51.4110121,45.5431357 L16.7748881,45.7749305 C16.4987519,45.7767784 16.2734012,45.5544239 16.2715533,45.2782877 C16.2714204,45.2584301 16.2724706,45.2385822 16.2746984,45.2188495 L16.5004042,43.2196281 C16.5288049,42.9680654 16.7407468,42.7774256 16.9939019,42.7757314 Z"></path>
                        <path transform="translate(26.767329, 54.072352) rotate(-7.000000) translate(-26.767329, -54.072352)" fill="#F9F9F9" fill-opacity="0.6" id="矩形备份-4" d="M16.9277564,52.6863134 L36.7271615,52.4592791 C37.0032857,52.4561128 37.2296954,52.677389 37.2328616,52.9535132 C37.2330093,52.9663908 37.2326593,52.9792692 37.2318126,52.9921197 L37.1000876,54.9912978 C37.0829162,55.2519069 36.8680594,55.4553968 36.6069024,55.4583915 L16.8074973,55.6854258 C16.5313731,55.688592 16.3049634,55.4673158 16.3017972,55.1911916 C16.3016495,55.1783141 16.3019995,55.1654356 16.3028462,55.1525851 L16.4345712,53.153407 C16.4517426,52.8927979 16.6665994,52.689308 16.9277564,52.6863134 Z"></path>
                    </g>
                    <g transform="translate(43.717613, 25.655372)" id="编组-7">
                        <g transform="translate(0.282387, 0.344628)" id="编组-2">
                            <g id="undraw_folder_files_re_2cbm">
                                <g fill-rule="nonzero" transform="translate(9.275856, 22.083910) rotate(15.000000) translate(-9.275856, -22.083910) translate(2.275856, 12.583910)" id="编组-4">
                                    <path transform="translate(5.689945, 13.420143) rotate(19.000000) translate(-5.689945, -13.420143)" fill="#FFDCD5" id="路径" d="M3.67215046,15.9841373 C3.65760365,15.9090685 3.63646467,15.8354398 3.60898105,15.7641135 L10.2853803,10.6897399 L8.15091928,9.28743544 L1.84569491,15.0604743 C1.19509073,15.371959 0.914274189,16.1501666 1.21523235,16.8076319 C1.46828233,17.3536588 2.06434272,17.6509435 2.65071435,17.5235776 C3.35271478,17.3762848 3.80732716,16.6911169 3.67215046,15.9841373 Z"></path>
                                    <path fill="#EAEAEA" id="路径" d="M10.9751587,12.4257657 C12.4855331,9.00843036 13.2319761,7.10407077 13.2144877,6.71268691 C13.1043031,4.24679777 12.5519896,2.00923547 11.5575472,9.09494702e-13 C10.4545723,0.866112205 9.75028199,2.12922042 9.60155637,3.50796842 L7.93802576,10.7711673 L10.9751587,12.4257657 Z"></path>
                                </g>
                                <path fill-rule="nonzero" fill="#FFDCD5" id="路径备份" d="M24.817482,30.6456604 C26.7606066,29.6122798 28.2661863,28.4320633 29.3342209,27.105011 C29.5942075,26.7819729 29.8625282,25.5741024 30.139183,23.4813995 L27.6226415,24.6526184 C27.6212571,25.487384 27.5012311,26.0865254 27.2625636,26.4500427 C26.3386678,27.8572393 24.9995742,28.4865194 23.245283,28.337883 C22.5946788,28.6493677 24.8449656,30.7169868 24.817482,30.6456604 Z"></path>
                                <polygon points="25.2450727 65.4716981 23.7620797 65.4715874 23.0566038 59.4528302 25.245283 59.4529409" fill-rule="nonzero" fill="#FFD0C7" id="路径"></polygon>
                                <polygon points="17.5845902 65.4716981 16.1017024 65.4715874 15.3962264 59.4528302 17.5849057 59.4529409" fill-rule="nonzero" fill="#FFD0C7" id="路径"></polygon>
                                <path transform="translate(15.262898, 66.112779) rotate(19.000000) translate(-15.262898, -66.112779)" fill-rule="nonzero" fill="#2F2E41" id="路径" d="M17.4371093,66.8307532 L16.3770853,67.1957488 L16.3770853,67.1957488 C13.9197869,67.6456198 12.666068,67.5517865 12.6159284,66.9142489 C12.616017,65.8261686 13.7285257,65.2960659 14.5451458,65.2934251 C15.0895592,65.2916646 15.4901,65.1870569 15.7467681,64.979602 L16.2149654,65.1069357 L16.8653807,64.8829797 L17.2496839,64.7506357 L17.7470858,66.1952094 C17.8369867,66.4563073 17.698206,66.7408489 17.4371093,66.8307532 Z"></path>
                                <path transform="translate(22.926230, 66.112779) rotate(19.000000) translate(-22.926230, -66.112779)" fill-rule="nonzero" fill="#2F2E41" id="路径" d="M25.1004407,66.8307532 L24.0404166,67.1957488 L24.0404166,67.1957488 C21.5831183,67.6456198 20.3293994,67.5517865 20.2792598,66.9142489 C20.2793484,65.8261686 21.391857,65.2960659 22.2084772,65.2934251 C22.7528906,65.2916646 23.1534314,65.1870569 23.4100995,64.979602 L23.8782968,65.1069357 L24.5287121,64.8829797 L24.9130152,64.7506357 L25.4104172,66.1952094 C25.5003181,66.4563073 25.3615374,66.7408489 25.1004407,66.8307532 Z"></path>
                                <path transform="translate(20.946625, 47.538098) scale(-1, 1) rotate(-5.000000) translate(-20.946625, -47.538098)" fill-rule="nonzero" fill="#FA7268" id="路径" d="M15.6287879,31.7225529 L26.6163272,32.0837858 C27.937123,32.7985695 27.8113555,39.4001103 26.2390246,51.8884083 C26.2390246,51.8884083 25.9195192,61.3885358 25.7003766,61.6068784 C25.481234,61.825221 25.2620926,61.6068784 25.481234,62.1527427 C25.7003755,62.6986071 25.9195192,62.4802611 25.7003766,62.6986071 C25.5062586,62.9071443 25.3233828,63.1257972 25.1525207,63.3536439 L22.5034021,63.3536439 C22.5034021,63.3536439 22.3036759,62.2619152 22.3036759,62.1527427 C22.3036759,62.0435703 22.0845333,61.3885336 22.0845333,61.27936 C22.0845333,61.1701865 22.2782245,60.9772017 22.2782245,60.9772017 C22.3451555,60.755274 22.3903737,60.5274134 22.4132467,60.296806 C22.4132467,60.07846 22.5342536,51.527296 22.5342536,51.527296 L21.0395273,40.4553041 L18.8443001,51.6848678 C18.8443001,51.6848678 18.5782551,60.8426681 18.3591125,61.061014 C18.1399698,61.27936 18.1399698,61.1701865 18.2495417,61.6068773 C18.3591136,62.0435681 18.7973965,61.9343956 18.4686832,62.261914 C18.1399698,62.5894324 18.0303991,62.0435692 18.1399698,62.5894324 L18.2495417,63.1352968 L14.9624083,63.1821468 C14.9624083,63.1821468 14.5241231,62.261914 14.7432657,61.9343956 C14.9624083,61.6068773 14.9492589,61.6962789 14.6819057,61.160301 C14.4145524,60.6243232 14.3049817,60.5151497 14.4145524,60.4059773 C14.5241231,60.2968048 14.5241231,59.7161257 14.5241231,59.7161257 L14.7847404,49.9866247 C14.7847404,49.9866247 14.616972,38.1945063 14.616972,37.8669879 C14.582892,35.6273301 14.9201639,33.5791851 15.6287879,31.7225529 Z"></path>
                                <path fill="#FFD0C7" id="路径-2" d="M18.3433723,9.29914284 C18.7912216,10.0008012 19.0151463,10.6699356 19.0151463,11.3065458 C19.0151463,11.9431561 20.0500571,11.7713235 22.1198788,10.791048 L21.8253555,8.56114197 L18.3433723,9.29914284 Z"></path>
                                <path fill-rule="nonzero" fill="#EAEAEA" id="路径" d="M24.245283,33.5 C25.5504198,33.0550361 26.4820304,33.1663839 27.6936569,32.4139042 C27.3204676,28.6819035 26.5012133,24.0489209 26.6729088,19.5355059 C26.7422632,17.7123628 27.2787756,16.0780855 27.5989839,14.2685052 C27.7303443,13.5319898 27.303271,12.8108082 26.6009632,12.5831878 L23.4594536,11.682521 L22.1198788,10.5214558 L21.2278215,10.9035939 C20.7533819,11.1068336 20.2440921,11.2163317 19.7280447,11.2260481 L18.9875679,11.2399902 L18.9875679,11.2399902 L18.0607444,12.8687598 L14.6303615,15.2220204 C14.2213952,15.5024206 14.0124161,16.0002659 14.0964345,16.4939799 C14.6912935,19.9081348 16.7844962,23.0440981 16.5366307,26.4825707 C16.355074,29.0011837 16.2156915,31.4870287 15.5849057,33.9445801 C17.1954585,34.1535528 17.9358407,34.5533682 19.4959485,34.4388412 C21.1536675,34.3171486 22.7559067,34.0077804 24.245283,33.5 Z"></path>
                                <path fill-rule="nonzero" fill="#EAEAEA" id="路径" d="M30.6778113,23.8626404 L30.4271662,19.0843814 C30.3032974,16.9071794 29.0776953,13.9557436 27.1796945,12.896677 L26.6729088,18.7369614 L27.6226415,25.248459 L30.6778113,23.8626404 Z"></path>
                                <circle r="3.55660377" cy="6.19811321" cx="19.6886792" fill-rule="nonzero" fill="#FFDCD5" id="椭圆形"></circle>
                                <path fill-rule="nonzero" fill="#2F2E41" id="路径" d="M20.2892914,9.56408501 C20.9357751,9.56408501 21.374054,9.39816666 22.0940285,9.56870842 C22.1667137,9.11405945 22.5836557,8.76632561 22.7732697,8.56114197 C24.7337456,6.43968582 25.1777605,3.2683837 22.8339739,2.05196485 C22.8033452,2.03606862 22.9328578,1.80197703 22.9080544,1.77690029 C22.8849337,1.75352486 22.7032796,1.87293051 22.6792526,1.84998512 C22.629877,1.80283218 22.7325335,1.42367961 22.6792526,1.3786478 C22.6187521,1.32751409 22.4128812,1.66742181 22.3472013,1.61958802 C22.3111279,1.59331621 22.3848729,1.32549188 22.3472013,1.30035591 C22.3007796,1.26938153 22.1425237,1.48140287 22.0936321,1.45232196 C21.7818454,1.2668699 21.4193544,1.1218131 21,1.04130554 C19.624291,0.777197273 16.7536994,0.625875473 16.1567123,3.2683837 C16.0064226,3.62955434 15.8434407,4.03038025 15.6677666,4.47086143 L16.1567123,4.38632774 L16.3111668,4.71516609 L16.6937008,4.47086143 C16.1460253,4.66836866 16.4981251,5.32464345 17.75,6.43968582 C19.6278124,8.11224937 20.1514473,8.4025383 20.2892914,9.56408501 Z"></path>
                            </g>
                            <circle r="1" cy="6.75" cx="18.05" fill="#FFC8BE" id="椭圆形"></circle>
                        </g>
                    </g>
                </g>
            </g>
        </g>
    </g>
</svg>